<svg width="19" height="21" viewBox="0 0 19 21" fill="none" xmlns="http://www.w3.org/2000/svg">
<g id="Delete">
<path id="Stroke 1" d="M16.6038 7.58827C16.6038 7.58827 16.0608 14.4087 15.7458 17.2817C15.5958 18.6538 14.7588 19.4579 13.3878 19.4832C10.7788 19.5308 8.16684 19.5339 5.55884 19.4782C4.23984 19.4508 3.41684 18.6366 3.26984 17.2887C2.95284 14.3905 2.41284 7.58827 2.41284 7.58827" stroke="black" stroke-width="1.5" stroke-linecap="round" stroke-linejoin="round"/>
<path id="Stroke 3" d="M17.9871 4.31883H1.02911" stroke="black" stroke-width="1.5" stroke-linecap="round" stroke-linejoin="round"/>
<path id="Stroke 5" d="M14.7195 4.31883C13.9345 4.31883 13.2585 3.75679 13.1045 2.97804L12.8615 1.74662C12.7115 1.1785 12.2035 0.785583 11.6245 0.785583H7.39151C6.81251 0.785583 6.30451 1.1785 6.15451 1.74662L5.91151 2.97804C5.75751 3.75679 5.08151 4.31883 4.29651 4.31883" stroke="black" stroke-width="1.5" stroke-linecap="round" stroke-linejoin="round"/>
</g>
</svg>
