<svg width="17" height="16" viewBox="0 0 17 16" fill="none" xmlns="http://www.w3.org/2000/svg">
<g id="Frame">
<path id="Vector" d="M8.27893 4.00003V8.00003H11.2789M14.2789 8.00003C14.2789 8.78796 14.1237 9.56818 13.8222 10.2961C13.5207 11.0241 13.0787 11.6855 12.5216 12.2427C11.9644 12.7998 11.303 13.2418 10.575 13.5433C9.84708 13.8448 9.06686 14 8.27893 14C7.491 14 6.71078 13.8448 5.98283 13.5433C5.25488 13.2418 4.59344 12.7998 4.03629 12.2427C3.47914 11.6855 3.03718 11.0241 2.73565 10.2961C2.43413 9.56818 2.27893 8.78796 2.27893 8.00003C2.27893 6.40873 2.91107 4.88261 4.03629 3.75739C5.16151 2.63217 6.68763 2.00003 8.27893 2.00003C9.87023 2.00003 11.3964 2.63217 12.5216 3.75739C13.6468 4.88261 14.2789 6.40873 14.2789 8.00003Z" stroke="#5A5C63" stroke-width="1.5" stroke-linecap="round" stroke-linejoin="round"/>
</g>
</svg>
